<svg width="400" height="400" viewBox="0 0 400 400" fill="none" xmlns="http://www.w3.org/2000/svg">
<path d="M300 186.21H288.3L275.64 126.61C271.89 107.13 254.77 93 234.94 93H165.06C145.23 93 128.11 107.13 124.4 126.44L111.7 186.21H100C95.03 186.21 91 190.24 91 195.21C91 200.18 95.03 204.21 100 204.21H280.98H281.01C281.03 204.21 281.04 204.21 281.06 204.21H300C304.97 204.21 309 200.18 309 195.21C309 190.24 304.97 186.21 300 186.21ZM130.09 186.21L142.03 130C144.15 118.99 153.84 110.99 165.06 110.99H234.94C246.16 110.99 255.85 118.99 258.01 130.17L269.91 186.21H130.09Z" fill="black"/>
<path d="M254.37 219.42C234.48 219.42 217.85 233.44 213.71 252.11H186.3C182.16 233.45 165.53 219.42 145.64 219.42C122.65 219.42 103.95 238.12 103.95 261.11C103.95 284.1 122.65 302.81 145.64 302.81C165.53 302.81 182.16 288.78 186.3 270.11H213.71C217.85 288.78 234.48 302.81 254.37 302.81C277.36 302.81 296.06 284.1 296.06 261.11C296.06 238.12 277.35 219.42 254.37 219.42ZM145.63 284.8C132.57 284.8 121.95 274.18 121.95 261.11C121.95 248.05 132.57 237.43 145.63 237.43C158.7 237.43 169.32 248.05 169.32 261.11C169.33 274.18 158.7 284.8 145.63 284.8ZM254.37 284.8C241.3 284.8 230.68 274.18 230.68 261.11C230.68 248.05 241.3 237.43 254.37 237.43C267.43 237.43 278.05 248.05 278.05 261.11C278.05 274.18 267.42 284.8 254.37 284.8Z" fill="black"/>
</svg>
